<svg width="148" height="167" viewBox="0 0 148 167" fill="none" xmlns="http://www.w3.org/2000/svg">
<g clip-path="url(#clip0_41_135)">
<path d="M86.3333 69.5833V118.292M61.6666 69.5833V118.292M37 41.75V123.858C37 131.652 37 135.547 38.3442 138.524C39.5267 141.142 41.412 143.275 43.7327 144.61C46.3684 146.125 49.8204 146.125 56.7142 146.125H91.2857C98.1795 146.125 101.627 146.125 104.262 144.61C106.583 143.275 108.475 141.142 109.657 138.524C111 135.55 111 131.659 111 123.88V41.75M37 41.75H49.3333M37 41.75H24.6666M49.3333 41.75H98.6666M49.3333 41.75C49.3333 35.2656 49.3333 32.0251 50.2721 29.4676C51.5239 26.0576 53.9233 23.3468 56.9453 21.9343C59.2118 20.875 62.0867 20.875 67.8333 20.875H80.1666C85.9132 20.875 88.7865 20.875 91.0531 21.9343C94.0751 23.3468 96.4754 26.0576 97.7272 29.4676C98.666 32.0251 98.6666 35.2657 98.6666 41.75M98.6666 41.75H111M111 41.75H123.333" stroke="white" stroke-width="2" stroke-linecap="round" stroke-linejoin="round"/>
</g>
<defs>
<clipPath id="clip0_41_135">
<rect width="120.839" height="236.189" fill="white" transform="scale(1.22477 0.707061)"/>
</clipPath>
</defs>
</svg>
